<?xml version="1.0" standalone="no"?>
<!DOCTYPE svg PUBLIC "-//W3C//DTD SVG 20010904//EN"
 "http://www.w3.org/TR/2001/REC-SVG-20010904/DTD/svg10.dtd">
<svg version="1.0" xmlns="http://www.w3.org/2000/svg"
 width="800.000000pt" height="800.000000pt" viewBox="0 0 800.000000 800.000000"
 preserveAspectRatio="xMidYMid meet">
<metadata>
Created by potrace 1.11, written by Peter Selinger 2001-2013
</metadata>
<g transform="translate(0.000000,800.000000) scale(0.100000,-0.100000)"
fill="#000000" stroke="none">
<path d="M3788 7995 c-2 -1 -48 -5 -103 -9 -99 -7 -114 -8 -210 -22 -27 -4
-59 -8 -70 -10 -412 -54 -953 -238 -1335 -454 -387 -220 -756 -517 -1029 -830
-31 -35 -64 -74 -74 -85 -41 -46 -178 -227 -239 -315 -164 -240 -316 -531
-424 -812 -54 -141 -136 -407 -150 -488 -3 -14 -7 -33 -10 -42 -9 -29 -37
-177 -50 -258 -3 -19 -7 -46 -9 -60 -3 -14 -7 -56 -11 -95 -4 -38 -8 -73 -10
-77 -6 -9 -18 -282 -18 -388 0 -99 12 -364 18 -400 2 -14 7 -49 10 -78 12
-104 28 -202 57 -342 74 -357 184 -660 379 -1045 266 -525 555 -885 1051
-1311 79 -67 465 -334 483 -334 3 0 29 -14 58 -31 29 -17 107 -58 173 -91 66
-33 128 -64 138 -69 31 -17 307 -125 377 -147 209 -68 436 -125 587 -148 21
-3 49 -7 63 -10 14 -2 43 -6 65 -9 22 -3 56 -7 75 -10 198 -27 764 -27 920 -1
14 2 48 7 75 11 28 3 66 9 85 11 104 15 354 71 485 110 171 51 163 48 190 58
11 5 63 24 115 43 249 93 520 231 750 381 279 183 597 458 800 692 36 41 73
83 83 95 67 72 265 354 354 500 123 203 250 476 336 720 58 166 108 348 141
510 22 109 27 141 42 255 2 19 6 45 8 56 28 153 29 818 1 963 -1 9 -6 39 -9
66 -4 28 -11 73 -16 100 -5 28 -11 64 -14 80 -22 154 -119 497 -192 685 -76
196 -235 527 -329 685 -88 149 -271 412 -355 509 -256 300 -456 488 -737 692
-313 228 -662 411 -1021 535 -129 44 -377 114 -436 123 -21 4 -41 8 -45 10 -3
3 -27 7 -51 11 -25 3 -64 11 -88 16 -24 5 -62 12 -85 14 -23 3 -58 7 -77 10
-190 24 -247 28 -487 30 -128 1 -234 1 -235 0z"/>
</g>
</svg>
